{
    "asset" : {
        "generator" : "Khronos glTF Blender I/O v3.4.49",
        "version" : "2.0"
    },
    "extensionsUsed" : [
        "KHR_materials_specular",
        "KHR_materials_ior"
    ],
    "scene" : 0,
    "scenes" : [
        {
            "name" : "Scene",
            "nodes" : [
                0
            ]
        }
    ],
    "nodes" : [
        {
            "mesh" : 0,
            "name" : "Cylinder",
            "scale" : [
                0.43094608187675476,
                0.43094608187675476,
                0.43094602227211
            ]
        }
    ],
    "materials" : [
        {
            "doubleSided" : true,
            "extensions" : {
                "KHR_materials_specular" : {
                    "specularColorFactor" : [
                        0,
                        0,
                        0
                    ]
                },
                "KHR_materials_ior" : {
                    "ior" : 1.4500000476837158
                }
            },
            "name" : "RedWood",
            "pbrMetallicRoughness" : {
                "metallicFactor" : 0
            }
        },
        {
            "doubleSided" : true,
            "extensions" : {
                "KHR_materials_specular" : {
                    "specularColorFactor" : [
                        2.371357614441398,
                        2.371357614441398,
                        2.371357614441398
                    ]
                },
                "KHR_materials_ior" : {
                    "ior" : 1.4500000476837158
                }
            },
            "name" : "Gold",
            "pbrMetallicRoughness" : {
                "baseColorFactor" : [
                    1,
                    0.6795420050621033,
                    0,
                    1
                ],
                "roughnessFactor" : 0
            }
        },
        {
            "doubleSided" : true,
            "extensions" : {
                "KHR_materials_specular" : {
                    "specularColorFactor" : [
                        2.371357614441398,
                        2.371357614441398,
                        2.371357614441398
                    ]
                },
                "KHR_materials_ior" : {
                    "ior" : 1.4500000476837158
                }
            },
            "name" : "Black",
            "pbrMetallicRoughness" : {
                "baseColorFactor" : [
                    0,
                    0,
                    0,
                    1
                ],
                "roughnessFactor" : 0.12727272510528564
            }
        }
    ],
    "meshes" : [
        {
            "name" : "Cylinder",
            "primitives" : [
                {
                    "attributes" : {
                        "POSITION" : 0,
                        "TEXCOORD_0" : 1,
                        "NORMAL" : 2
                    },
                    "indices" : 3,
                    "material" : 0
                },
                {
                    "attributes" : {
                        "POSITION" : 4,
                        "TEXCOORD_0" : 5,
                        "NORMAL" : 6
                    },
                    "indices" : 7,
                    "material" : 1
                },
                {
                    "attributes" : {
                        "POSITION" : 8,
                        "TEXCOORD_0" : 9,
                        "NORMAL" : 10
                    },
                    "indices" : 11,
                    "material" : 2
                }
            ]
        }
    ],
    "accessors" : [
        {
            "bufferView" : 0,
            "componentType" : 5126,
            "count" : 704,
            "max" : [
                1.3648064136505127,
                11.127119064331055,
                1.124181866645813
            ],
            "min" : [
                -1.1143546104431152,
                -12.864965438842773,
                -1.1241822242736816
            ],
            "type" : "VEC3"
        },
        {
            "bufferView" : 1,
            "componentType" : 5126,
            "count" : 704,
            "type" : "VEC2"
        },
        {
            "bufferView" : 2,
            "componentType" : 5126,
            "count" : 704,
            "type" : "VEC3"
        },
        {
            "bufferView" : 3,
            "componentType" : 5123,
            "count" : 2394,
            "type" : "SCALAR"
        },
        {
            "bufferView" : 4,
            "componentType" : 5126,
            "count" : 543,
            "max" : [
                1.3127272129058838,
                11.28026008605957,
                1.1436283588409424
            ],
            "min" : [
                -1.5130839347839355,
                -12.864965438842773,
                -1.1436285972595215
            ],
            "type" : "VEC3"
        },
        {
            "bufferView" : 5,
            "componentType" : 5126,
            "count" : 543,
            "type" : "VEC2"
        },
        {
            "bufferView" : 6,
            "componentType" : 5126,
            "count" : 543,
            "type" : "VEC3"
        },
        {
            "bufferView" : 7,
            "componentType" : 5123,
            "count" : 1542,
            "type" : "SCALAR"
        },
        {
            "bufferView" : 8,
            "componentType" : 5126,
            "count" : 248,
            "max" : [
                1.309952974319458,
                12.332815170288086,
                1.1657382249832153
            ],
            "min" : [
                -1.021524429321289,
                0.8534693717956543,
                -1.1657383441925049
            ],
            "type" : "VEC3"
        },
        {
            "bufferView" : 9,
            "componentType" : 5126,
            "count" : 248,
            "type" : "VEC2"
        },
        {
            "bufferView" : 10,
            "componentType" : 5126,
            "count" : 248,
            "type" : "VEC3"
        },
        {
            "bufferView" : 11,
            "componentType" : 5123,
            "count" : 858,
            "type" : "SCALAR"
        }
    ],
    "bufferViews" : [
        {
            "buffer" : 0,
            "byteLength" : 8448,
            "byteOffset" : 0,
            "target" : 34962
        },
        {
            "buffer" : 0,
            "byteLength" : 5632,
            "byteOffset" : 8448,
            "target" : 34962
        },
        {
            "buffer" : 0,
            "byteLength" : 8448,
            "byteOffset" : 14080,
            "target" : 34962
        },
        {
            "buffer" : 0,
            "byteLength" : 4788,
            "byteOffset" : 22528,
            "target" : 34963
        },
        {
            "buffer" : 0,
            "byteLength" : 6516,
            "byteOffset" : 27316,
            "target" : 34962
        },
        {
            "buffer" : 0,
            "byteLength" : 4344,
            "byteOffset" : 33832,
            "target" : 34962
        },
        {
            "buffer" : 0,
            "byteLength" : 6516,
            "byteOffset" : 38176,
            "target" : 34962
        },
        {
            "buffer" : 0,
            "byteLength" : 3084,
            "byteOffset" : 44692,
            "target" : 34963
        },
        {
            "buffer" : 0,
            "byteLength" : 2976,
            "byteOffset" : 47776,
            "target" : 34962
        },
        {
            "buffer" : 0,
            "byteLength" : 1984,
            "byteOffset" : 50752,
            "target" : 34962
        },
        {
            "buffer" : 0,
            "byteLength" : 2976,
            "byteOffset" : 52736,
            "target" : 34962
        },
        {
            "buffer" : 0,
            "byteLength" : 1716,
            "byteOffset" : 55712,
            "target" : 34963
        }
    ],
    "buffers" : [
        {
            "byteLength" : 57428,
            "uri" : "pen2.bin"
        }
    ]
}
