{
    "asset" : {
        "generator" : "Khronos glTF Blender I/O v3.4.49",
        "version" : "2.0"
    },
    "scene" : 0,
    "scenes" : [
        {
            "name" : "Scene",
            "nodes" : [
                0,
                1,
                2,
                3,
                4,
                5
            ]
        }
    ],
    "nodes" : [
        {
            "mesh" : 0,
            "name" : "Pen_Part.005",
            "scale" : [
                0.03885653242468834,
                0.03885653242468834,
                0.03885653242468834
            ],
            "translation" : [
                0,
                0.06645052134990692,
                0
            ]
        },
        {
            "mesh" : 1,
            "name" : "Pen_Part.004",
            "scale" : [
                0.03885653242468834,
                0.03885653242468834,
                0.03885653242468834
            ],
            "translation" : [
                0,
                0.06645052134990692,
                0
            ]
        },
        {
            "mesh" : 2,
            "name" : "Pen_Part.003",
            "scale" : [
                0.03885653242468834,
                0.03885653242468834,
                0.03885653242468834
            ],
            "translation" : [
                0,
                0.06645052134990692,
                0
            ]
        },
        {
            "mesh" : 3,
            "name" : "Pen_Part.002",
            "scale" : [
                0.03885653242468834,
                0.03885653242468834,
                0.03885653242468834
            ],
            "translation" : [
                0,
                0.06645052134990692,
                0
            ]
        },
        {
            "mesh" : 4,
            "name" : "Pen_Part.001",
            "scale" : [
                0.03885653242468834,
                0.03885653242468834,
                0.03885653242468834
            ],
            "translation" : [
                0,
                0.06645052134990692,
                0
            ]
        },
        {
            "mesh" : 5,
            "name" : "Pen_Part",
            "scale" : [
                0.03885653242468834,
                0.03885653242468834,
                0.03885653242468834
            ],
            "translation" : [
                0,
                0.06645052134990692,
                0
            ]
        }
    ],
    "materials" : [
        {
            "doubleSided" : true,
            "name" : "Material.001",
            "pbrMetallicRoughness" : {
                "baseColorFactor" : [
                    0.16794593632221222,
                    0.0003838548145722598,
                    0,
                    1
                ],
                "metallicFactor" : 0,
                "roughnessFactor" : 0.5
            }
        },
        {
            "doubleSided" : true,
            "name" : "Material.004",
            "pbrMetallicRoughness" : {
                "baseColorFactor" : [
                    0.025394020602107048,
                    0.025394020602107048,
                    0.025394020602107048,
                    1
                ],
                "metallicFactor" : 0,
                "roughnessFactor" : 0.5
            }
        },
        {
            "doubleSided" : true,
            "name" : "Material.003",
            "pbrMetallicRoughness" : {
                "baseColorFactor" : [
                    0.7356586456298828,
                    0.7356586456298828,
                    0.7356586456298828,
                    1
                ],
                "metallicFactor" : 0,
                "roughnessFactor" : 0.5
            }
        },
        {
            "doubleSided" : true,
            "name" : "Material.002",
            "pbrMetallicRoughness" : {
                "baseColorFactor" : [
                    0.800000011920929,
                    0.800000011920929,
                    0.800000011920929,
                    1
                ],
                "metallicFactor" : 0,
                "roughnessFactor" : 0.5
            }
        }
    ],
    "meshes" : [
        {
            "name" : "Cylinder.012",
            "primitives" : [
                {
                    "attributes" : {
                        "POSITION" : 0,
                        "TEXCOORD_0" : 1,
                        "NORMAL" : 2
                    },
                    "indices" : 3,
                    "material" : 0
                }
            ]
        },
        {
            "name" : "Cylinder.011",
            "primitives" : [
                {
                    "attributes" : {
                        "POSITION" : 4,
                        "TEXCOORD_0" : 5,
                        "NORMAL" : 6
                    },
                    "indices" : 7,
                    "material" : 1
                }
            ]
        },
        {
            "name" : "Cylinder.010",
            "primitives" : [
                {
                    "attributes" : {
                        "POSITION" : 8,
                        "TEXCOORD_0" : 9,
                        "NORMAL" : 10
                    },
                    "indices" : 11,
                    "material" : 2
                }
            ]
        },
        {
            "name" : "Cylinder.007",
            "primitives" : [
                {
                    "attributes" : {
                        "POSITION" : 12,
                        "TEXCOORD_0" : 13,
                        "NORMAL" : 14
                    },
                    "indices" : 15,
                    "material" : 3
                }
            ]
        },
        {
            "name" : "Cylinder.006",
            "primitives" : [
                {
                    "attributes" : {
                        "POSITION" : 16,
                        "TEXCOORD_0" : 17,
                        "NORMAL" : 18
                    },
                    "indices" : 19,
                    "material" : 3
                }
            ]
        },
        {
            "name" : "Cylinder.005",
            "primitives" : [
                {
                    "attributes" : {
                        "POSITION" : 20,
                        "TEXCOORD_0" : 21,
                        "NORMAL" : 22
                    },
                    "indices" : 23,
                    "material" : 0
                }
            ]
        }
    ],
    "accessors" : [
        {
            "bufferView" : 0,
            "componentType" : 5126,
            "count" : 30016,
            "max" : [
                0.17410200834274292,
                1.9369155168533325,
                0.1098710149526596
            ],
            "min" : [
                -0.1098218485713005,
                0.805077314376831,
                -0.109871044754982
            ],
            "type" : "VEC3"
        },
        {
            "bufferView" : 1,
            "componentType" : 5126,
            "count" : 30016,
            "type" : "VEC2"
        },
        {
            "bufferView" : 2,
            "componentType" : 5126,
            "count" : 30016,
            "type" : "VEC3"
        },
        {
            "bufferView" : 3,
            "componentType" : 5123,
            "count" : 178176,
            "type" : "SCALAR"
        },
        {
            "bufferView" : 4,
            "componentType" : 5126,
            "count" : 4718,
            "max" : [
                0.057272057980298996,
                1.464715838432312,
                0.05729765072464943
            ],
            "min" : [
                -0.05727199837565422,
                -0.9542368650436401,
                -0.05729766562581062
            ],
            "type" : "VEC3"
        },
        {
            "bufferView" : 5,
            "componentType" : 5126,
            "count" : 4718,
            "type" : "VEC2"
        },
        {
            "bufferView" : 6,
            "componentType" : 5126,
            "count" : 4718,
            "type" : "VEC3"
        },
        {
            "bufferView" : 7,
            "componentType" : 5123,
            "count" : 26880,
            "type" : "SCALAR"
        },
        {
            "bufferView" : 8,
            "componentType" : 5126,
            "count" : 5902,
            "max" : [
                0.02862401492893696,
                1.7720649242401123,
                0.028636792674660683
            ],
            "min" : [
                -0.02862396463751793,
                1.6676125526428223,
                -0.028636809438467026
            ],
            "type" : "VEC3"
        },
        {
            "bufferView" : 9,
            "componentType" : 5126,
            "count" : 5902,
            "type" : "VEC2"
        },
        {
            "bufferView" : 10,
            "componentType" : 5126,
            "count" : 5902,
            "type" : "VEC3"
        },
        {
            "bufferView" : 11,
            "componentType" : 5123,
            "count" : 33024,
            "type" : "SCALAR"
        },
        {
            "bufferView" : 12,
            "componentType" : 5126,
            "count" : 36972,
            "max" : [
                0.08597632497549057,
                1.5865131616592407,
                0.09899351745843887
            ],
            "min" : [
                -0.08597632497549057,
                -1.709832787513733,
                -0.09899351745843887
            ],
            "type" : "VEC3"
        },
        {
            "bufferView" : 13,
            "componentType" : 5126,
            "count" : 36972,
            "type" : "VEC2"
        },
        {
            "bufferView" : 14,
            "componentType" : 5126,
            "count" : 36972,
            "type" : "VEC3"
        },
        {
            "bufferView" : 15,
            "componentType" : 5123,
            "count" : 210816,
            "type" : "SCALAR"
        },
        {
            "bufferView" : 16,
            "componentType" : 5126,
            "count" : 8086,
            "max" : [
                0.04658645763993263,
                1.6676127910614014,
                0.046607278287410736
            ],
            "min" : [
                -0.04658640921115875,
                -1.7076561450958252,
                -0.04660729691386223
            ],
            "type" : "VEC3"
        },
        {
            "bufferView" : 17,
            "componentType" : 5126,
            "count" : 8086,
            "type" : "VEC2"
        },
        {
            "bufferView" : 18,
            "componentType" : 5126,
            "count" : 8086,
            "type" : "VEC3"
        },
        {
            "bufferView" : 19,
            "componentType" : 5123,
            "count" : 46080,
            "type" : "SCALAR"
        },
        {
            "bufferView" : 20,
            "componentType" : 5126,
            "count" : 22434,
            "max" : [
                0.09624634683132172,
                1.5852484703063965,
                0.09628937393426895
            ],
            "min" : [
                -0.09624628722667694,
                -1.7076561450958252,
                -0.09628938883543015
            ],
            "type" : "VEC3"
        },
        {
            "bufferView" : 21,
            "componentType" : 5126,
            "count" : 22434,
            "type" : "VEC2"
        },
        {
            "bufferView" : 22,
            "componentType" : 5126,
            "count" : 22434,
            "type" : "VEC3"
        },
        {
            "bufferView" : 23,
            "componentType" : 5123,
            "count" : 123840,
            "type" : "SCALAR"
        }
    ],
    "bufferViews" : [
        {
            "buffer" : 0,
            "byteLength" : 360192,
            "byteOffset" : 0,
            "target" : 34962
        },
        {
            "buffer" : 0,
            "byteLength" : 240128,
            "byteOffset" : 360192,
            "target" : 34962
        },
        {
            "buffer" : 0,
            "byteLength" : 360192,
            "byteOffset" : 600320,
            "target" : 34962
        },
        {
            "buffer" : 0,
            "byteLength" : 356352,
            "byteOffset" : 960512,
            "target" : 34963
        },
        {
            "buffer" : 0,
            "byteLength" : 56616,
            "byteOffset" : 1316864,
            "target" : 34962
        },
        {
            "buffer" : 0,
            "byteLength" : 37744,
            "byteOffset" : 1373480,
            "target" : 34962
        },
        {
            "buffer" : 0,
            "byteLength" : 56616,
            "byteOffset" : 1411224,
            "target" : 34962
        },
        {
            "buffer" : 0,
            "byteLength" : 53760,
            "byteOffset" : 1467840,
            "target" : 34963
        },
        {
            "buffer" : 0,
            "byteLength" : 70824,
            "byteOffset" : 1521600,
            "target" : 34962
        },
        {
            "buffer" : 0,
            "byteLength" : 47216,
            "byteOffset" : 1592424,
            "target" : 34962
        },
        {
            "buffer" : 0,
            "byteLength" : 70824,
            "byteOffset" : 1639640,
            "target" : 34962
        },
        {
            "buffer" : 0,
            "byteLength" : 66048,
            "byteOffset" : 1710464,
            "target" : 34963
        },
        {
            "buffer" : 0,
            "byteLength" : 443664,
            "byteOffset" : 1776512,
            "target" : 34962
        },
        {
            "buffer" : 0,
            "byteLength" : 295776,
            "byteOffset" : 2220176,
            "target" : 34962
        },
        {
            "buffer" : 0,
            "byteLength" : 443664,
            "byteOffset" : 2515952,
            "target" : 34962
        },
        {
            "buffer" : 0,
            "byteLength" : 421632,
            "byteOffset" : 2959616,
            "target" : 34963
        },
        {
            "buffer" : 0,
            "byteLength" : 97032,
            "byteOffset" : 3381248,
            "target" : 34962
        },
        {
            "buffer" : 0,
            "byteLength" : 64688,
            "byteOffset" : 3478280,
            "target" : 34962
        },
        {
            "buffer" : 0,
            "byteLength" : 97032,
            "byteOffset" : 3542968,
            "target" : 34962
        },
        {
            "buffer" : 0,
            "byteLength" : 92160,
            "byteOffset" : 3640000,
            "target" : 34963
        },
        {
            "buffer" : 0,
            "byteLength" : 269208,
            "byteOffset" : 3732160,
            "target" : 34962
        },
        {
            "buffer" : 0,
            "byteLength" : 179472,
            "byteOffset" : 4001368,
            "target" : 34962
        },
        {
            "buffer" : 0,
            "byteLength" : 269208,
            "byteOffset" : 4180840,
            "target" : 34962
        },
        {
            "buffer" : 0,
            "byteLength" : 247680,
            "byteOffset" : 4450048,
            "target" : 34963
        }
    ],
    "buffers" : [
        {
            "byteLength" : 4697728,
            "uri" : "pen3.bin"
        }
    ]
}
