{
    "asset" : {
        "copyright" : "Iuri F. C.",
        "generator" : "Khronos glTF Blender I/O v3.4.49",
        "version" : "2.0"
    },
    "scene" : 0,
    "scenes" : [
        {
            "name" : "Scene",
            "nodes" : [
                0
            ]
        }
    ],
    "nodes" : [
        {
            "mesh" : 0,
            "name" : "Argentina-USA",
            "rotation" : [
                0,
                0.7071068286895752,
                0,
                0.7071068286895752
            ]
        }
    ],
    "animations" : [
        {
            "channels" : [
                {
                    "sampler" : 0,
                    "target" : {
                        "node" : 0,
                        "path" : "scale"
                    }
                }
            ],
            "name" : "Argentina-USAAction.001",
            "samplers" : [
                {
                    "input" : 8,
                    "interpolation" : "LINEAR",
                    "output" : 9
                }
            ]
        }
    ],
    "materials" : [
        {
            "doubleSided" : true,
            "name" : "Argentina Side",
            "pbrMetallicRoughness" : {
                "baseColorTexture" : {
                    "index" : 0
                },
                "metallicFactor" : 0,
                "roughnessFactor" : 0.5
            }
        },
        {
            "doubleSided" : true,
            "name" : "USA Side",
            "pbrMetallicRoughness" : {
                "baseColorTexture" : {
                    "index" : 1
                },
                "metallicFactor" : 0,
                "roughnessFactor" : 0.5
            }
        }
    ],
    "meshes" : [
        {
            "name" : "Sphere.001",
            "primitives" : [
                {
                    "attributes" : {
                        "POSITION" : 0,
                        "TEXCOORD_0" : 1,
                        "NORMAL" : 2
                    },
                    "indices" : 3,
                    "material" : 0
                },
                {
                    "attributes" : {
                        "POSITION" : 4,
                        "TEXCOORD_0" : 5,
                        "NORMAL" : 6
                    },
                    "indices" : 7,
                    "material" : 1
                }
            ]
        }
    ],
    "textures" : [
        {
            "sampler" : 0,
            "source" : 0
        },
        {
            "sampler" : 0,
            "source" : 1
        }
    ],
    "images" : [
        {
            "mimeType" : "image/png",
            "name" : "Argentina Flag.png",
            "uri" : "Argentina%20Flag.png"
        },
        {
            "mimeType" : "image/png",
            "name" : "USA Flag.png",
            "uri" : "USA%20Flag.png"
        }
    ],
    "accessors" : [
        {
            "bufferView" : 0,
            "componentType" : 5126,
            "count" : 145,
            "max" : [
                2.682209014892578e-07,
                1,
                1.000000238418579
            ],
            "min" : [
                -1.0000004768371582,
                -1,
                -1.0000007152557373
            ],
            "type" : "VEC3"
        },
        {
            "bufferView" : 1,
            "componentType" : 5126,
            "count" : 145,
            "type" : "VEC2"
        },
        {
            "bufferView" : 2,
            "componentType" : 5126,
            "count" : 145,
            "type" : "VEC3"
        },
        {
            "bufferView" : 3,
            "componentType" : 5123,
            "count" : 780,
            "type" : "SCALAR"
        },
        {
            "bufferView" : 4,
            "componentType" : 5126,
            "count" : 214,
            "max" : [
                1.0000001192092896,
                1,
                1.000000238418579
            ],
            "min" : [
                -1.1920928955078125e-07,
                -1,
                -1.0000007152557373
            ],
            "type" : "VEC3"
        },
        {
            "bufferView" : 5,
            "componentType" : 5126,
            "count" : 214,
            "type" : "VEC2"
        },
        {
            "bufferView" : 6,
            "componentType" : 5126,
            "count" : 214,
            "type" : "VEC3"
        },
        {
            "bufferView" : 7,
            "componentType" : 5123,
            "count" : 780,
            "type" : "SCALAR"
        },
        {
            "bufferView" : 8,
            "componentType" : 5126,
            "count" : 90,
            "max" : [
                3
            ],
            "min" : [
                0.03333333333333333
            ],
            "type" : "SCALAR"
        },
        {
            "bufferView" : 9,
            "componentType" : 5126,
            "count" : 90,
            "type" : "VEC3"
        }
    ],
    "bufferViews" : [
        {
            "buffer" : 0,
            "byteLength" : 1740,
            "byteOffset" : 0,
            "target" : 34962
        },
        {
            "buffer" : 0,
            "byteLength" : 1160,
            "byteOffset" : 1740,
            "target" : 34962
        },
        {
            "buffer" : 0,
            "byteLength" : 1740,
            "byteOffset" : 2900,
            "target" : 34962
        },
        {
            "buffer" : 0,
            "byteLength" : 1560,
            "byteOffset" : 4640,
            "target" : 34963
        },
        {
            "buffer" : 0,
            "byteLength" : 2568,
            "byteOffset" : 6200,
            "target" : 34962
        },
        {
            "buffer" : 0,
            "byteLength" : 1712,
            "byteOffset" : 8768,
            "target" : 34962
        },
        {
            "buffer" : 0,
            "byteLength" : 2568,
            "byteOffset" : 10480,
            "target" : 34962
        },
        {
            "buffer" : 0,
            "byteLength" : 1560,
            "byteOffset" : 13048,
            "target" : 34963
        },
        {
            "buffer" : 0,
            "byteLength" : 360,
            "byteOffset" : 14608
        },
        {
            "buffer" : 0,
            "byteLength" : 1080,
            "byteOffset" : 14968
        }
    ],
    "samplers" : [
        {
            "magFilter" : 9729,
            "minFilter" : 9987
        }
    ],
    "buffers" : [
        {
            "byteLength" : 16048,
            "uri" : "Countryball.bin"
        }
    ]
}
